<?xml version="1.0" encoding="UTF-8"?>
<svg width="73px" height="40px" viewBox="0 0 73 40" version="1.1" xmlns="http://www.w3.org/2000/svg" xmlns:xlink="http://www.w3.org/1999/xlink">
    <!-- Generator: Sketch 64 (93537) - https://sketch.com -->
    <title>FCA-Logo-2021-Web-RGB@1x</title>
    <desc>Created with Sketch.</desc>
    <g id="Symbols" stroke="none" stroke-width="1" fill="none" fill-rule="evenodd">
        <g id="Logo-National-Temp">
            <g id="National-Logo-2021-Web-RGB">
                <g id="Group-24">
                    <g id="Swoosh" transform="translate(0.000000, 0.150147)" fill="#B51F3E">
                        <path d="M0,20.3276126 C0.578924988,13.1333802 8.43425233,9.49486781 12.8988222,7.26258285 C30.0972519,-0.0959894981 53.3314414,0.48293549 53.3314414,0.48293549 C53.3314414,0.48293549 34.3003718,1.34883297 21.2353421,8.29468783 C15.2829972,11.8491628 11.1744973,15.5362302 10.7026423,20.8193876 C10.3422148,24.8482075 13.5804597,28.9498599 19.7693546,32.6917073 C28.8846219,38.2033222 42.1071442,39.8398747 42.1071442,39.8398747 C42.1071442,39.8398747 26.439442,38.7349372 15.7106547,34.7148323 C14.3486247,34.2043823 0.0827924983,29.7541299 0,20.3276126" id="Fill-1"></path>
                    </g>
                    <g id="Group" transform="translate(22.996270, 11.292632)" fill="#274A5A">
                        <polygon id="Fill-4" points="5.1767099 1.61912247 2.05300496 1.61912247 2.05300496 3.45487493 5.1767099 3.45487493 5.1767099 4.9650599 2.05300496 4.9650599 2.05300496 8.34772483 5.23137089e-13 8.34772483 5.23137089e-13 0.108937498 5.1767099 0.108937498"></polygon>
                        <path d="M5.73023688,8.34772483 L7.48195185,8.34772483 L7.48195185,2.77883994 L5.73023688,2.77883994 L5.73023688,8.34772483 Z M7.56661185,0.966742481 C7.56661185,1.49773497 7.13023936,1.93286246 6.60049187,1.93286246 C6.06763188,1.93286246 5.63312689,1.49773497 5.63312689,0.966742481 C5.63312689,0.435127491 6.06763188,8.8817842e-15 6.60049187,8.8817842e-15 C7.13023936,8.8817842e-15 7.56661185,0.435127491 7.56661185,0.966742481 L7.56661185,0.966742481 Z" id="Fill-6"></path>
                        <path d="M9.85946605,4.37324916 L9.88312105,4.37324916 C10.4029085,3.21353169 10.9830785,2.6700892 11.6591135,2.6700892 C12.0089585,2.6700892 12.310871,2.80268169 12.8182085,3.17742669 L12.335771,4.72309416 C11.8757435,4.43363166 11.5744535,4.31286666 11.2968185,4.31286666 C10.6556435,4.31286666 10.2447935,4.91669165 9.85946605,5.94381663 L9.85946605,8.34728908 L8.10775109,8.34728908 L8.10775109,2.77902669 L9.85946605,2.77902669 L9.85946605,4.37324916 Z" id="Fill-8"></path>
                        <path d="M17.0327824,4.32463191 C16.2720874,3.85339942 15.5232199,3.70897943 15.1733749,3.70897943 C14.9430499,3.70897943 14.54465,3.75753442 14.54465,4.14348442 C14.54465,4.7597594 17.3110399,4.7834144 17.3110399,6.64406687 C17.3110399,7.80378434 16.4893399,8.45554183 15.0401599,8.45554183 C14.1456275,8.45554183 13.288445,8.17852934 13.0475375,8.04593684 L13.0475375,6.81338686 C13.6152575,7.05429436 14.1817325,7.28399685 14.847185,7.28399685 C15.3663499,7.28399685 15.6919174,7.12712686 15.6919174,6.87376936 C15.6919174,6.06389688 12.92615,6.20893938 12.92615,4.38501441 C12.92615,3.35851193 13.8555425,2.67002695 15.2325124,2.67002695 C15.9346924,2.67002695 16.4532349,2.79016944 17.0327824,3.08087694 L17.0327824,4.32463191 Z" id="Fill-9"></path>
                        <path d="M22.1185451,3.97447567 L20.0885726,3.97447567 L20.0885726,6.26963312 C20.0885726,6.81307561 20.4029351,7.16354311 20.9463776,7.16354311 C21.3092951,7.16354311 21.6466901,7.07888311 22.1185451,6.83735311 L22.1185451,8.10600809 C21.5028926,8.35936558 21.0428651,8.45709808 20.4994226,8.45709808 C19.3397051,8.45709808 18.3374801,7.92486059 18.3374801,6.36612062 L18.3374801,3.97447567 L17.5406801,3.97447567 L17.5406801,3.63583568 L19.8719426,1.02693823 L20.0885726,1.02693823 L20.0885726,2.77865319 L22.1185451,2.77865319 L22.1185451,3.97447567 Z" id="Fill-10"></path>
                        <path d="M31.6530039,7.6346511 C30.6040914,8.22664858 29.8091589,8.45572858 28.6961289,8.45572858 C25.7710015,8.45572858 24.314974,6.37782362 24.314974,4.25198616 C24.314974,2.05331621 25.959619,0.000311249994 28.8393039,0.000311249994 C29.8869714,0.000311249994 30.8257014,0.241841245 31.5639864,0.724901235 L31.5639864,2.5612762 C30.7366839,2.05331621 29.8981764,1.71467622 28.9712739,1.71467622 C27.3714489,1.71467622 26.245969,2.75487369 26.245969,4.21588117 C26.245969,5.68933864 27.3602439,6.74011861 28.9270764,6.74011861 C29.9087589,6.74011861 30.5710989,6.40210112 31.6530039,5.83438113 L31.6530039,7.6346511 Z" id="Fill-11"></path>
                        <polygon id="Fill-12" points="32.2176114 8.34772483 33.9693263 8.34772483 33.9693263 0.109559998 32.2176114 0.109559998"></polygon>
                        <path d="M37.704762,5.65286014 C36.6658095,6.02822763 36.1690545,6.26913512 36.1690545,6.82565011 C36.1690545,7.15059511 36.4230345,7.4170251 36.7367745,7.4170251 C37.0642095,7.4170251 37.4140545,7.2595326 37.704762,6.99434761 L37.704762,5.65286014 Z M40.4101469,7.94801759 C39.9264644,8.23872508 39.238602,8.45597758 38.766747,8.45597758 C38.1871995,8.45597758 37.9095645,8.27483008 37.7887995,7.82787509 C37.112142,8.28728008 36.5562495,8.45597758 35.953047,8.45597758 C35.059137,8.45597758 34.3943071,7.79177009 34.3943071,7.09083511 C34.3943071,5.76242013 35.3722545,5.49661264 37.704762,4.77140015 C37.739622,4.25223516 37.499337,3.84200767 36.7367745,3.84200767 C36.036462,3.84200767 35.2402845,4.20368017 34.6837696,4.77140015 L34.6837696,3.34587518 C35.408982,2.89892019 36.2176095,2.6698402 37.099692,2.6698402 C38.5009395,2.6698402 39.455232,3.14107269 39.455232,4.36117266 L39.455232,6.89723761 C39.455232,7.17487261 39.563547,7.2844326 39.7446945,7.2844326 C39.8667044,7.2844326 39.9986744,7.2595326 40.4101469,6.97069261 L40.4101469,7.94801759 Z" id="Fill-13"></path>
                        <path d="M44.8142721,4.32463191 C44.0535771,3.85339942 43.3047096,3.70897943 42.9542421,3.70897943 C42.7251621,3.70897943 42.3261396,3.75753442 42.3261396,4.14348442 C42.3261396,4.7597594 45.0919071,4.7834144 45.0919071,6.64406687 C45.0919071,7.80378434 44.2708296,8.45554183 42.8210271,8.45554183 C41.9277397,8.45554183 41.0699347,8.17852934 40.8277822,8.04593684 L40.8277822,6.81338686 C41.3961247,7.05429436 41.9638447,7.28399685 42.6286746,7.28399685 C43.1478396,7.28399685 43.4734071,7.12712686 43.4734071,6.87376936 C43.4734071,6.06389688 40.7076397,6.20893938 40.7076397,4.38501441 C40.7076397,3.35851193 41.6376547,2.67002695 43.0146246,2.67002695 C43.7161821,2.67002695 44.2347246,2.79016944 44.8142721,3.08087694 L44.8142721,4.32463191 Z" id="Fill-14"></path>
                        <path d="M49.472066,4.32463191 C48.710126,3.85339942 47.9612585,3.70897943 47.612036,3.70897943 C47.382956,3.70897943 46.9826886,3.75753442 46.9826886,4.14348442 C46.9826886,4.7597594 49.749701,4.7834144 49.749701,6.64406687 C49.749701,7.80378434 48.928001,8.45554183 47.478821,8.45554183 C46.5849111,8.45554183 45.7264836,8.17852934 45.4861986,8.04593684 L45.4861986,6.81338686 C46.0539186,7.05429436 46.6203936,7.28399685 47.2852235,7.28399685 C47.8043885,7.28399685 48.131201,7.12712686 48.131201,6.87376936 C48.131201,6.06389688 45.3648111,6.20893938 45.3648111,4.38501441 C45.3648111,3.35851193 46.2954486,2.67002695 47.671796,2.67002695 C48.372731,2.67002695 48.891896,2.79016944 49.472066,3.08087694 L49.472066,4.32463191 Z" id="Fill-15"></path>
                    </g>
                    <g id="Group-2" transform="translate(24.776496, 21.594836)" fill="#274A5A">
                        <path d="M4.54238241,1.96958996 L3.33410993,5.1717299 L5.87017488,5.1717299 L4.54238241,1.96958996 Z M9.36177731,8.23878733 L7.15127986,8.23878733 L6.47462237,6.60783737 L2.79066744,6.60783737 L2.17314746,8.23878733 L-2.66453526e-13,8.23878733 L3.32165993,-3.64153152e-14 L5.70147739,-3.64153152e-14 L9.36177731,8.23878733 Z" id="Fill-16"></path>
                        <path d="M13.9224612,7.97329109 C13.2221487,8.22664858 12.6301512,8.34803608 12.0381538,8.34803608 C10.0810138,8.34803608 8.81298132,7.2125961 8.81298132,5.47270864 C8.81298132,3.76954867 10.1289463,2.5612762 11.9646988,2.5612762 C12.5330412,2.5612762 13.2582537,2.7063187 13.8371787,2.92419369 L13.8371787,4.22833116 C13.3790187,3.98617867 12.8467812,3.85420867 12.4122763,3.85420867 C11.3621188,3.85420867 10.6854613,4.48168866 10.6854613,5.46025864 C10.6854613,6.45127862 11.3496688,7.10428111 12.3525163,7.10428111 C12.7745712,7.10428111 13.1493162,7.00654861 13.9224612,6.71646361 L13.9224612,7.97329109 Z" id="Fill-17"></path>
                        <path d="M19.2209944,7.97329109 C18.5206819,8.22664858 17.9286844,8.34803608 17.3354419,8.34803608 C15.3795469,8.34803608 14.110892,7.2125961 14.110892,5.47270864 C14.110892,3.76954867 15.4274794,2.5612762 17.2638544,2.5612762 C17.8315744,2.5612762 18.5567869,2.7063187 19.1350894,2.92419369 L19.1350894,4.22833116 C18.6769294,3.98617867 18.1453144,3.85420867 17.7095644,3.85420867 C16.6606519,3.85420867 15.9833719,4.48168866 15.9833719,5.46025864 C15.9833719,6.45127862 16.6469569,7.10428111 17.6504269,7.10428111 C18.0724819,7.10428111 18.4472269,7.00654861 19.2209944,6.71646361 L19.2209944,7.97329109 Z" id="Fill-18"></path>
                        <path d="M22.5322585,3.60004193 C21.7715636,3.60004193 21.2511536,4.19203942 21.2511536,5.44886689 C21.2511536,6.88559686 21.8674286,7.30889685 22.5322585,7.30889685 C23.353336,7.30889685 23.789086,6.63223937 23.789086,5.41276189 C23.789086,4.32400941 23.4137185,3.60004193 22.5322585,3.60004193 M22.5322585,8.34784933 C20.7083336,8.34784933 19.3799186,7.19995936 19.3799186,5.44886689 C19.3799186,3.55210943 20.8888586,2.56108945 22.5322585,2.56108945 C23.8967785,2.56108945 25.660321,3.32302943 25.660321,5.46007189 C25.660321,7.67056935 23.764186,8.34784933 22.5322585,8.34784933" id="Fill-19"></path>
                        <path d="M30.0989326,7.44198735 C29.5436627,8.08129484 29.0002202,8.34834733 28.2986627,8.34834733 C27.1999502,8.34834733 26.2568627,7.67044485 26.2568627,6.23433737 L26.2568627,2.67052495 L28.0098227,2.67052495 L28.0098227,6.11232738 C28.0098227,6.89854486 28.4312552,7.17617986 28.8912827,7.17617986 C29.4216527,7.17617986 29.9053351,6.76470736 30.0871051,6.22188737 L30.0871051,2.67052495 L31.8500251,2.67052495 L31.8500251,8.23878733 L30.0989326,8.23878733 L30.0989326,7.44198735 Z" id="Fill-20"></path>
                        <path d="M34.3093358,3.46688918 C34.8658508,2.82758169 35.4099158,2.5611517 36.1220558,2.5611517 C36.9929333,2.5611517 38.1514057,3.05603919 38.1514057,4.69943916 L38.1514057,8.23835158 L36.3996908,8.23835158 L36.3996908,4.84385915 C36.3996908,4.05888667 36.0255683,3.73331917 35.5300583,3.73331917 C35.0955533,3.73331917 34.7699858,3.96177667 34.3093358,4.65026166 L34.3093358,8.23835158 L32.5588658,8.23835158 L32.5588658,2.6707117 L34.3093358,2.6707117 L34.3093358,3.46688918 Z" id="Fill-21"></path>
                        <path d="M43.1909166,3.86628517 L41.1609442,3.86628517 L41.1609442,6.16082013 C41.1609442,6.70488512 41.4753067,7.05535261 42.0187492,7.05535261 C42.3816666,7.05535261 42.7203066,6.97069261 43.1909166,6.72854011 L43.1909166,7.99781759 C42.5752641,8.25055258 42.1158592,8.34828508 41.5724167,8.34828508 C40.4120767,8.34828508 39.4098517,7.81729259 39.4098517,6.25793012 L39.4098517,3.86628517 L38.6130517,3.86628517 L38.6130517,3.52702268 L40.9443142,0.918747732 L41.1609442,0.918747732 L41.1609442,2.6698402 L43.1909166,2.6698402 L43.1909166,3.86628517 Z" id="Fill-22"></path>
                        <path d="M47.6845573,4.21581892 C46.9232398,3.74458642 46.1737498,3.60078893 45.8251498,3.60078893 C45.5954473,3.60078893 45.1964248,3.64809893 45.1964248,4.03467142 C45.1964248,4.65094641 47.9621923,4.67522391 47.9621923,6.53587637 C47.9621923,7.69497135 47.1411148,8.34797383 45.6925573,8.34797383 C44.7980248,8.34797383 43.9402199,8.07033884 43.6993124,7.93774634 L43.6993124,6.70395137 C44.2664099,6.94672636 44.8335073,7.17580636 45.4983373,7.17580636 C46.0181248,7.17580636 46.3443148,7.01955886 46.3443148,6.76557886 C46.3443148,5.95570638 43.5773024,6.10074888 43.5773024,4.27744641 C43.5773024,3.24907643 44.5079399,2.56121395 45.8849098,2.56121395 C46.5858448,2.56121395 47.1050098,2.68135645 47.6845573,2.97268644 L47.6845573,4.21581892 Z" id="Fill-23"></path>
                    </g>
                </g>
            </g>
        </g>
    </g>
</svg>